HIERARCHY
ROOT Hips
{
    OFFSET 0.000000 0.000000 0.000000
    CHANNELS 6 Xposition Yposition Zposition Zrotation Xrotation Yrotation
    JOINT Spine
    {
        OFFSET -0.000000 7.750029 0.000000
        CHANNELS 3 Zrotation Xrotation Yrotation
        JOINT Spine1
        {
            OFFSET -0.000000 19.767460 0.000000
            CHANNELS 3 Zrotation Xrotation Yrotation
            JOINT Neck
            {
                OFFSET -0.000000 19.686279 1.789662
                CHANNELS 3 Zrotation Xrotation Yrotation
                JOINT Head
                {
                    OFFSET -0.000000 13.231757 -1.890251
                    CHANNELS 3 Zrotation Xrotation Yrotation
                    End Site
                    {
                        OFFSET -0.000000 23.628138 0.000000
                    }
                }
            }
            JOINT LeftShoulder
            {
                OFFSET 3.736819 16.910755 -0.280982
                CHANNELS 3 Zrotation Xrotation Yrotation
                JOINT LeftArm
                {
                    OFFSET 13.626117 0.000000 0.000000
                    CHANNELS 3 Zrotation Xrotation Yrotation
                    JOINT LeftForeArm
                    {
                        OFFSET 31.364786 0.000000 0.000000
                        CHANNELS 3 Zrotation Xrotation Yrotation
                        JOINT LeftHand
                        {
                            OFFSET 23.389509 0.000000 0.000000
                            CHANNELS 3 Zrotation Xrotation Yrotation
                            End Site
                            {
                                OFFSET 14.176883 0.000000 0.000000
                            }
                        }
                    }
                }
            }
            JOINT RightShoulder
            {
                OFFSET -3.821718 16.910755 -0.280982
                CHANNELS 3 Zrotation Xrotation Yrotation
                JOINT RightArm
                {
                    OFFSET -13.626117 0.000000 0.000000
                    CHANNELS 3 Zrotation Xrotation Yrotation
                    JOINT RightForeArm
                    {
                        OFFSET -31.364786 0.000000 0.000000
                        CHANNELS 3 Zrotation Xrotation Yrotation
                        JOINT RightHand
                        {
                            OFFSET -23.389509 0.000000 0.000000
                            CHANNELS 3 Zrotation Xrotation Yrotation
                            End Site
                            {
                                OFFSET -14.176883 0.000000 0.000000
                            }
                        }
                    }
                }
            }
        }
    }
    JOINT LeftUpLeg
    {
        OFFSET 9.451255 0.000000 0.000000
        CHANNELS 3 Zrotation Xrotation Yrotation
        JOINT LeftLeg
        {
            OFFSET -0.000000 -41.898624 0.000000
            CHANNELS 3 Zrotation Xrotation Yrotation
            JOINT LeftFoot
            {
                OFFSET -0.000000 -38.481331 0.000000
                CHANNELS 3 Zrotation Xrotation Yrotation
                JOINT LeftToeBase
                {
                    OFFSET -0.000000 -6.143315 14.176883
                    CHANNELS 3 Zrotation Xrotation Yrotation
                    End Site
                    {
                        OFFSET -0.000000 0.000000 3.780502
                    }
                }
            }
        }
    }
    JOINT RightUpLeg
    {
        OFFSET -9.451255 0.000000 0.000000
        CHANNELS 3 Zrotation Xrotation Yrotation
        JOINT RightLeg
        {
            OFFSET -0.000000 -41.898624 0.000000
            CHANNELS 3 Zrotation Xrotation Yrotation
            JOINT RightFoot
            {
                OFFSET -0.000000 -38.481331 0.000000
                CHANNELS 3 Zrotation Xrotation Yrotation
                JOINT RightToeBase
                {
                    OFFSET -0.000000 -6.143315 14.176883
                    CHANNELS 3 Zrotation Xrotation Yrotation
                    End Site
                    {
                        OFFSET -0.000000 0.000000 3.780502
                    }
                }
            }
        }
    }
}
MOTION
Frames:    5
Frame Time:    0.010000
-21.957190    90.876335    -11.685914    -1.895266    1.224991    173.337082    0.197563    -4.600803    1.113827    0.227612    5.351292    1.095275    -6.146957    37.607140    5.520829    -4.247766    -29.786009    2.737257    10.193896    4.792130    -2.012434    -75.074234    44.166054    -8.889771    27.563791    -42.069767    -95.411903    -0.086881    -14.614016    -0.991564    -11.403217    7.529860    0.218421    67.836517    43.115768    19.968872    -18.103895    -30.900274    102.853874    1.708967    -9.331322    -3.931129    3.387504    -6.578591    -0.602508    -3.270711    17.527300    -4.236492    -4.285500    -8.018390    19.580679    0.000000    0.000000    0.000000    -5.887420    1.824863    0.246735    2.439398    13.871736    9.189037    0.478563    -14.105726    -25.739044    0.000000    0.000000    0.000000    
-21.942385    90.874374    -11.687062    -1.895357    1.248054    173.374985    0.198889    -4.587206    1.123724    0.215023    5.371377    1.105719    -6.196114    37.677979    5.523610    -4.194784    -29.957632    2.739384    10.205961    4.790897    -2.011262    -75.111183    44.686672    -8.783941    27.729235    -42.355167    -95.189423    0.022878    -14.912617    -0.983646    -11.393163    7.490058    0.257556    67.816887    43.173737    19.860189    -18.005430    -30.850639    102.922852    1.910531    -9.383301    -3.987817    3.383660    -6.547668    -0.603584    -3.318792    17.454029    -4.051546    -4.198425    -7.923141    19.566401    0.000000    0.000000    0.000000    -5.839731    1.848558    0.184473    2.356325    13.881349    9.133739    0.543704    -14.141058    -25.663033    0.000000    0.000000    0.000000    
-21.930098    90.876427    -11.689939    -1.905277    1.267241    173.414474    0.202985    -4.578455    1.137125    0.194707    5.383655    1.119919    -6.271443    37.689030    5.520470    -4.107689    -30.020411    2.751226    10.170784    4.767334    -2.000627    -75.085144    44.363140    -8.778204    27.081966    -41.822811    -95.710228    -0.052710    -14.712021    -0.919999    -11.451096    7.489423    0.271637    67.871216    43.203449    19.777287    -17.334522    -30.466270    103.404297    1.280757    -9.615473    -4.410965    3.375592    -6.513550    -0.634664    -3.246409    17.473446    -4.266683    -4.299326    -8.015123    19.556540    0.000000    0.000000    0.000000    -5.791564    1.799167    0.139351    2.251635    14.039246    9.110518    0.647550    -14.221561    -25.637522    0.000000    0.000000    0.000000    
-21.916536    90.879890    -11.689876    -1.903402    1.281616    173.461334    0.209786    -4.579128    1.155711    0.178425    5.408078    1.138869    -6.248048    37.746246    5.495589    -4.150163    -30.134235    2.705651    10.169548    4.789832    -1.994632    -75.043274    44.470161    -8.804318    26.817257    -41.640781    -95.833458    0.080053    -14.730788    -0.842002    -11.395602    7.559918    0.248198    67.688026    43.326599    19.810078    -18.098820    -30.833691    102.815384    2.346393    -9.298360    -3.882694    3.378053    -6.486349    -0.691396    -3.249416    17.422001    -4.192246    -4.362834    -7.991782    19.536079    0.000000    0.000000    0.000000    -5.774101    1.840721    0.134446    2.247993    14.012112    9.068434    0.631121    -14.213511    -25.616669    0.000000    0.000000    0.000000    
-21.902020    90.883545    -11.696992    -1.909767    1.303051    173.510971    0.212950    -4.588472    1.168876    0.154663    5.457877    1.153017    -6.090710    37.704277    5.414052    -4.389426    -30.090408    2.564664    10.192308    4.762147    -1.979447    -75.065048    44.614285    -8.761204    26.721449    -41.499069    -95.786232    -0.069378    -14.689034    -0.948082    -11.389699    7.563973    0.218663    67.610321    43.431164    19.786283    -17.431089    -30.487831    103.193069    1.767670    -9.610753    -4.036912    3.371115    -6.449243    -0.735090    -3.247586    17.396202    -4.189963    -4.338914    -7.973138    19.491135    0.000000    0.000000    0.000000    -5.763782    1.903487    0.119097    2.231467    13.958017    9.063280    0.618926    -14.186944    -25.620089    0.000000    0.000000    0.000000    
